<svg width="24" height="24" viewBox="0 0 24 24" fill="none" xmlns="http://www.w3.org/2000/svg">
<g opacity="0.9">
<g clip-path="url(#clip0_157_254)">
<rect width="24" height="24" fill="url(#paint0_linear_157_254)"/>
<path d="M5.43201 11.8733C8.93026 10.3492 11.263 9.3444 12.4301 8.85893C15.7627 7.47282 16.4551 7.23204 16.9065 7.224C17.0058 7.22234 17.2277 7.24694 17.3715 7.3636C17.4929 7.46211 17.5263 7.59518 17.5423 7.68858C17.5583 7.78197 17.5782 7.99473 17.5623 8.16098C17.3817 10.0585 16.6003 14.6632 16.2028 16.7884C16.0346 17.6876 15.7034 17.9891 15.3827 18.0186C14.6858 18.0828 14.1567 17.5581 13.4817 17.1157C12.4256 16.4234 11.8289 15.9924 10.8037 15.3168C9.61896 14.5361 10.387 14.1069 11.0622 13.4056C11.2389 13.2221 14.3093 10.4294 14.3687 10.176C14.3762 10.1443 14.3831 10.0262 14.3129 9.96385C14.2427 9.90148 14.1392 9.92281 14.0644 9.93977C13.9585 9.96381 12.2713 11.079 9.00276 13.2853C8.52385 13.6142 8.09007 13.7744 7.70141 13.766C7.27295 13.7568 6.44876 13.5238 5.83606 13.3246C5.08456 13.0803 4.48728 12.9512 4.53929 12.5363C4.56638 12.3202 4.86395 12.0992 5.43201 11.8733Z" fill="white"/>
</g>
</g>
<defs>
<linearGradient id="paint0_linear_157_254" x1="12" y1="0" x2="12" y2="23.8219" gradientUnits="userSpaceOnUse">
<stop stop-color="#2AABEE"/>
<stop offset="1" stop-color="#229ED9"/>
</linearGradient>
<clipPath id="clip0_157_254">
<path d="M0 3C0 1.34315 1.34315 0 3 0H21C22.6569 0 24 1.34315 24 3V21C24 22.6569 22.6569 24 21 24H3C1.34315 24 0 22.6569 0 21V3Z" fill="white"/>
</clipPath>
</defs>
</svg>
