<svg width="24" height="24" viewBox="0 0 24 24" fill="none" xmlns="http://www.w3.org/2000/svg">
<g opacity="0.9">
<rect width="24" height="24" rx="3" fill="#1D9BF0"/>
<path d="M19.0852 8.36498C19.096 8.52207 19.096 8.67916 19.096 8.83769C19.096 13.6684 15.4185 19.2396 8.69413 19.2396V19.2367C6.70772 19.2396 4.76257 18.6706 3.09033 17.5977C3.37917 17.6325 3.66946 17.6499 3.96047 17.6506C5.60665 17.652 7.20577 17.0997 8.50084 16.0826C6.93647 16.0529 5.56466 15.0329 5.08543 13.5438C5.63343 13.6495 6.19808 13.6278 6.73595 13.4809C5.03041 13.1363 3.80338 11.6378 3.80338 9.8975C3.80338 9.88157 3.80338 9.86637 3.80338 9.85117C4.31157 10.1342 4.88056 10.2913 5.46259 10.3087C3.85623 9.23512 3.36107 7.09813 4.33112 5.42735C6.18722 7.71129 8.92578 9.09975 11.8656 9.2467C11.571 7.97696 11.9734 6.64641 12.9232 5.75383C14.3957 4.36971 16.7114 4.44065 18.0956 5.91237C18.9143 5.75093 19.699 5.45051 20.4171 5.02485C20.1442 5.8711 19.5731 6.58995 18.8101 7.04674C19.5347 6.96131 20.2427 6.76731 20.9094 6.47123C20.4186 7.20672 19.8004 7.84738 19.0852 8.36498Z" fill="white"/>
</g>
</svg>
