<svg width="24" height="24" viewBox="0 0 24 24" fill="none" xmlns="http://www.w3.org/2000/svg">
<g opacity="0.9">
<rect width="24" height="24" rx="3" fill="#2787F5"/>
<path fill-rule="evenodd" clip-rule="evenodd" d="M6.06769 7.0127H4.22977C3.70464 7.0127 3.59961 7.25987 3.59961 7.53234C3.59961 8.01907 4.22271 10.433 6.50086 13.6255C8.01964 15.8058 10.1594 16.9877 12.1066 16.9877C13.2749 16.9877 13.4194 16.7252 13.4194 16.2731V14.6252C13.4194 14.1002 13.5301 13.9954 13.9 13.9954C14.1726 13.9954 14.6399 14.1317 15.7304 15.1829C16.9766 16.4288 17.182 16.9877 17.8829 16.9877H19.7208C20.246 16.9877 20.5085 16.7252 20.3571 16.2072C20.1913 15.6909 19.5964 14.9418 18.8069 14.0538C18.3785 13.5477 17.7359 13.0026 17.5412 12.7301C17.2686 12.3797 17.3465 12.2239 17.5412 11.9125C17.5412 11.9125 19.7804 8.75879 20.0141 7.68816C20.1309 7.29877 20.0141 7.0127 19.4583 7.0127H17.6204C17.1531 7.0127 16.9376 7.25987 16.8207 7.53234C16.8207 7.53234 15.8861 9.81 14.5621 11.2895C14.1337 11.7177 13.939 11.854 13.7053 11.854C13.5885 11.854 13.4194 11.7177 13.4194 11.3285V7.68816C13.4194 7.22091 13.2838 7.0127 12.8943 7.0127H10.0061C9.71407 7.0127 9.53841 7.22952 9.53841 7.43506C9.53841 7.87795 10.2004 7.98011 10.2687 9.22599V11.9319C10.2687 12.5252 10.1615 12.6328 9.92785 12.6328C9.30478 12.6328 7.78916 10.3449 6.89026 7.72706C6.71412 7.21823 6.5374 7.0127 6.06769 7.0127Z" fill="white"/>
</g>
</svg>
