<svg width="24" height="24" viewBox="0 0 24 24" fill="none" xmlns="http://www.w3.org/2000/svg">
<g opacity="0.9">
<rect width="24" height="24" rx="3" fill="white"/>
<path d="M20.864 7.56C20.759 7.16 20.549 6.8 20.254 6.51C19.964 6.215 19.599 6.005 19.204 5.9C17.744 5.5 11.879 5.5 11.879 5.5C11.879 5.5 6.01397 5.515 4.55897 5.91C4.15897 6.02 3.79397 6.23 3.50397 6.52C3.21397 6.81 3.00397 7.175 2.89397 7.575C2.45397 10.16 2.28397 14.11 2.90897 16.595C3.01397 16.99 3.22397 17.355 3.51897 17.645C3.80897 17.94 4.16897 18.15 4.56897 18.255C6.02897 18.655 11.894 18.655 11.894 18.655C11.894 18.655 17.759 18.655 19.214 18.255C19.614 18.15 19.974 17.94 20.269 17.645C20.559 17.355 20.769 16.99 20.879 16.595C21.344 14 21.484 10.055 20.864 7.56ZM10.014 14.895V9.26L14.879 12.075L10.014 14.895Z" fill="#FF0000"/>
</g>
</svg>
